<?xml version="1.0" encoding="UTF-8"?>
<svg id="uuid-2540ffe3-7546-4fe3-aa53-8c399aa0f54e" data-name="Capa_2" xmlns="http://www.w3.org/2000/svg" viewBox="0 0 1027.03 488.26">
  <g id="uuid-dbda2c61-1690-4b49-b685-b97934f4aac8" data-name="Capa_2">
    <g>
      <path d="M184.22,358.36c-1.72-16.12-7.25-30.92-16.65-44.21-1.3-1.85-2.46-3.81-3.81-5.62-5.34-7.13-4.78-14.77-2.25-22.69,2.88-9.05,5.94-18.05,8.42-27.23,2.83-10.44,3.81-21.09,2.83-31.76-1.15-12.68-3.83-25.05-11.78-35.57-.52-.69-1.05-1.37-1.59-2.03-.43-.53-.87-1.05-1.31-1.57-.17-.2-.34-.4-.52-.6-.4-.46-.81-.91-1.22-1.36-.04-.05-.09-.09-.14-.14-.17-.19-.35-.38-.53-.57-.38-.4-.76-.79-1.15-1.18-.07-.07-.15-.14-.22-.21-.03-.04-.07-.08-.11-.12-.46-.46-2.25-2.42-3.57-3.85-.56-.6-1.03-1.11-1.29-1.38-17.05-17.43-38.31-21.6-61.33-18.46-21.09,2.88-40.24,11.12-57.96,23.1-14.78,9.98-23.07,23.62-26.19,40.83-1.6,8.86-2.2,17.81-2.43,26.79-.26,10.34-1.64,20.62-1.39,30.99.27,10.97.53,21.93,1.63,32.86.73,7.28.98,14.62,1.77,21.9,1.05,9.75,2.21,19.5,3.65,29.21,1.69,11.37,3.08,22.78,4.95,34.13,2.77,16.79,7.58,33,13.07,49.06,2.81,8.22,6.68,15.59,13.9,20.9.2.15.9.73,1.58,1.28.73.6,1.53,1.11,2.38,1.52,4.9,2.36,9.87,4.45,15.27,5.53,8.61,1.72,17.18,1.87,25.86.55,14.35-2.19,28.01-6.5,40.86-13.24,13.91-7.29,25.37-17.62,35.74-29.3,5.88-6.62,10.97-13.72,14.84-21.67,4.44-9.12,6.92-18.82,8.27-28.82,1.21-9.01,1.38-18.08.42-27.07ZM73.65,265.49c-2.4-5.07-1.57-10.19,2.08-14.49,4.72-5.56,10.4-6.46,16.8-3.08.99.52,1.68,1.3,2.24,2.15,1.04,1.57,1.7,3.4,1.84,5.28.42,5.79-2.16,12.59-6.36,15.97-1.52,1.22-3.21,2-5.19,2.03-5.55-.07-9.23-3.25-11.41-7.86ZM99.65,384.08c-2.06,1.22-3.8,1.34-6.84,1.12-.42-.03-.85-.08-1.26-.16-8.09-1.49-11.21-5.22-9.9-13.82.5-3.3,1.52-6.36,3.39-9.07,4-5.79,10.7-5.21,16.34-2.3,1.93,1,3.67,2.37,4.43,4.59,2.51,6.26-.42,16.25-6.15,19.64Z" style="fill: #0ca12d;"/>
      <path d="M778.32,314.3c-6.62-.54-12.27-3.19-17.09-7.74-1.44-1.36-2.44-2.86-2.5-4.89.1-1.72.1-3.45.3-5.16,1.39-12.33-.04-24.5-3.62-36.21-2.7-8.85-8.14-16.15-17.75-19.05h.01c-.18-.19-.37-.39-.55-.59-.19-.17-.38-.33-.57-.5l.02.03c-.02-.46.08-.99-.58-1.11,0,0,.02.03.02.03-1.46-7.76-2.65-15.55-3.33-23.42.02-1.63,1.18-2.78,1.77-4.18,2.4-5.77,2.29-11.83,2.13-17.87-.21-7.64-2.16-14.76-7.05-20.85-1.22-7.64-.8-15.24.54-22.81,5.72-5.35,9.83-11.75,12.19-19.22,1.92-6.05,2.7-12.34,2.96-18.64.2-4.78.35-9.58-.2-14.37-.81-7.06-3.1-13.63-6.33-19.91-.16-7.98,3.79-14.44,7.95-20.7,7-10.54,16.69-17.69,28.58-22.03,14.05-5.12,28.37-8.79,43.44-8.58,10.98.16,21.23,3.11,30.73,8.62,2.41,1.4,5.2,2.19,7.11,4.4.77.73,1.12,1.07,1.12,1.07,1.37,1.63,2.12,2.85,3.22,4.23,6.46,8.14,9.83,17.66,12.67,27.46,4.65,16.03,5.79,32.14,1.57,48.47-2.59,10.02-7.18,19.17-12.03,28.2-2.46,4.57-1.92,8.55.76,12.74,3.12,4.89,6.09,9.88,8.91,14.94,6.97,12.51,11.95,25.81,15.52,39.66,4.75,18.42,9.36,36.86,7.53,56.16-.6,6.31-1.66,12.53-3.64,18.58-2.02,6.17-6.4,10.71-10.57,15.32-5.99,6.62-13.59,8.62-22.26,6.76-.74-.16-1.03.05-2.23,0-5.88-3.38-11.72-6.79-16.13-12.14-5.72-6.93-10.58-14.4-14.59-22.45-.91-1.83-7.5-14.18-9.78-18.58-.64-1.24-1.49-.6-2,.36-1.07,2-2,4.06-2.76,6.21-3.37,9.57-5.35,19.6-9.28,28.99-4.52,10.81-11.68,18.26-24.21,18.77ZM810.69,121.27c-3.62-7.62-14.27-9.26-20.02-2.87-2.73,3.03-4.67,6.77-2.82,10.97,1.99,4.53,4.72,8.51,10.59,8.25,4.74-.4,8.46-2.74,11.19-6.46,2.18-2.97,3.19-6.32,1.07-9.88Z" style="fill: #c85ef5;"/>
      <path d="M174,201.74c.63-8.61,3.66-16.07,10.76-21.36,8.65-6.44,19.72-5.6,27.6,1.84,4.78,4.52,8.48,9.89,12.32,15.16.2.27.39.53.59.8,0,0-.01-.06-.01-.06-.18,1.88.98,3.29,1.84,4.72,3.4,5.63,5.74,11.67,7.43,18,4.06,15.18,4.57,30.82,5.96,46.35.68,7.63,1.39,15.27,2.28,22.88.38,3.23,1.34,6.38,3.26,9.1,1.92,2.71,5.54,3.42,7.59,1.56,2.04-.21,1.86-1.99,2.11-3.26,1.23-6.31.54-12.66.31-19-.83-22.58-1.8-45.16-.69-67.76.69-14.23,3.38-28.05,9.1-41.2,2-4.6,4.24-9.12,7.52-12.85,4.81-5.47,13.26-6.76,20.61-3.73,3.95,1.63,7.79,3.45,11.1,6.23,2.02,2.08,4.04,4.16,6.07,6.24.2.2.39.41.59.61l-.04-.04c.2.19.4.38.59.58l-.02-.04c-.36,1.26.58,2.05,1.14,2.93,1.8,2.84,3.48,5.72,4.81,8.82,4.4,10.28,6.96,21.13,9.76,31.89,3.83,14.69,6.35,29.62,7.81,44.76.94,9.7,2.14,19.42,2.44,29.13.5,16.03.3,32.07-.85,48.1-.78,10.94-2.65,21.68-5.03,32.33-3,13.41-7.66,26.21-14.86,38.02-5.57,9.15-12.76,16.82-20.63,24.02-6.32,5.78-13.15,10.71-21.32,13.15-10.65,3.18-21.54,3.92-32.69,2.29-14.35-2.09-26.76-7.86-37.66-17.33-2.66-2.32-4.8-5.12-7.58-7.29,0,0,.09.07.09.07-.15-.23-.31-.45-.46-.68-1.35-2.36-3.1-4.43-4.87-6.47-.17-.75.14-1.4.36-2.1,4.38-14.07,5.66-28.59,3.62-43.02-2.19-15.49-7.24-30.26-16.07-43.46-1.66-2.49-3.24-5.03-4.84-7.55-5.57-8.74-6.27-17.64-1.37-26.99,2.65-5.05,4.8-10.37,5.94-16.01,2.13-10.6,3.84-21.27,3.96-32.1.11-10.05-1.31-19.91-5.61-29.14-1.23-2.64-2.38-5.27-2.95-8.13Z" style="fill: #fe6a0c;"/>
      <path d="M879.21,64.03c3.46-15.36,10.41-29.14,19.16-42.08,2.65-3.92,6.02-7.24,9.59-10.36,6.54-5.72,14.08-9.19,22.69-10.3,8.83-1.14,17.67-1.95,26.54-.51,7.15,1.16,13.87,3.58,19.99,7.47,3.82,2.42,7.51,5.05,11.25,7.59.15.59.56.84,1.14.84,0,0-.03-.04-.03-.04-.12,1.09.8,1.55,1.37,2.22,7.12,8.31,9.89,17.98,7.45,28.55-2.96,12.82-11.76,20.87-23.57,25.91-5.83,2.49-11.76,4.78-17.41,7.69-1.78.92-3.49,1.96-4.81,3.5-2.07,2.41-2.25,4.45-.23,6.82,3.16,3.71,7.14,6.35,11.64,8.21,8.41,5.42,16.8,10.87,25.86,15.18.64.3,1.25.66,1.87.99.19.54,2.2,1.21,2.2,1.21.26,1.5,1.61,1.9,2.69,2.39,2.05.95,3.67,2.39,5.02,4.1,4.04,5.11,6.87,10.88,8.66,17.12,4.35,15.18,6.08,30.6,5.04,46.43-.69,10.51-2.49,20.8-4.33,31.12-2.97,16.59-9.69,31.85-16.79,46.94-4.55,9.68-10.15,18.8-15.98,27.8-5.21,8.06-11.27,15.3-17.91,22.13-7.53,7.75-15.42,15.09-23.68,22.08-6.66,5.64-14.02,7.53-22.44,6.15-12.3-2.11-19.36-9.75-22.48-21.44-.86-3.22-.51-6.47.49-9.64,5.43-5.96,9.78-12.54,12.08-20.39,1.81-6.2.87-12.62,1.89-18.87,2.25-5.94,5.32-11.48,8.3-17.07,6.4-12,12.75-24.03,16.75-37.11,1.38-4.5,2.87-9.04,2.27-13.84-.76-6-3.38-11.24-7.06-15.98-3.24-4.18-7.12-7.75-10.92-11.39-10.84-10.37-21.14-21.21-29.41-33.81-1.53-2.34-3.22-4.61-3.85-7.42.2-.6.39-1.2.61-1.79,3.12-8.34,5.32-16.88,5.14-25.85-.07-3.6-.8-7.19-.93-10.79-.32-9.1-2.02-17.88-5.29-26.39-.93-2.43-2.36-4.71-2.58-7.39Z" style="fill: #fe4c8f;"/>
      <path d="M309.74,165.39c-2.02-2.08-4.04-4.16-6.07-6.24,1.03-2.53,3.45-3.35,5.59-4.47,8.26-4.32,16.94-7.62,25.71-10.74,24.72-8.82,49.86-16.3,75.33-22.51,13-3.17,26.5-4.18,39.86-5.51,8.22-.82,16.44-1.66,24.71-1.82.9,0,1.8,0,2.7,0,10.18-.12,20.18.56,28.94,6.63,2.92,3.22,5.69,6.49,7.52,10.55,4.92,10.89,1.75,24.97-8.01,31.69-8.12,5.58-16.67,10.58-26,14.01-8.83,3.25-17.86,5.91-26.89,8.55-7.82,2.28-13.33,6.65-15.7,14.6-2.32,7.81-1.21,15.66.12,23.4,2.02,11.7,2.91,23.49,3.48,35.31.42,8.78.21,17.59.76,26.36.31,4.98-.04,10,.55,14.93.9,7.56.1,15.04-.91,22.44-1.65,12.16-3.73,24.28-6.36,36.27-2.48,11.29-4.4,22.75-10.1,33.1-3.99,7.23-8.98,12.95-17.77,13.95-9.29-.48-15.95-5.41-21.18-12.65-8.24-11.39-13.33-24.24-17.44-37.56-5.43-17.57-8.42-35.6-10.94-53.77-2.56-18.51-2.59-37.09-2.62-55.7,0-6.17.16-12.35.04-18.52-.15-7.81-3.06-11.01-10.75-12.09-2.6-.37-5.23-.49-7.85-.72-1.9-1.17-2.72-3.02-3.34-5.08-3.56-11.89-7.85-23.51-14.24-34.21-2.08-3.48-4.87-6.47-8-9.08,0,0,.02.04.02.04-.2-.19-.4-.38-.59-.58,0,0,.04.04.04.04-.2-.2-.39-.41-.59-.61Z" style="fill: #3d61cd;"/>
      <path d="M658.04,343.75c-1.81-1.14-3.96-1.22-5.93-1.84-8.02-2.54-13.8-7.69-17.96-14.91-5.37-9.32-7.66-19.69-10.29-29.93-5.85-22.73-9.15-45.93-12.56-69.11-1.59-10.76-2.19-21.63-2.67-32.49-.5-11.32-.78-22.64-1.18-33.97-.08-2.2.1-4.34.75-6.45.67-.93,1.59-1.35,2.7-1.65,11.38-3.11,22.38-7.21,32.72-12.94,11.16-6.19,18.58-14.96,19-28.32.13-4.05.17-8.25-1.51-12.01-2.38-5.31-6.53-8.79-12.3-10.14-6.75-3.02-13.22-6.78-20.72-7.79-.17-1.86,1-3.03,2.16-4.19,5.66-5.68,12.36-9.79,19.86-12.45,14.14-5.03,28.72-8.01,43.71-9.16,8.64-.66,16.54.97,23.68,5.94,2.4,2.33,4.93,4.52,7.04,7.14,6.81,8.47,8.39,18.67,9.22,28.98.7,8.61-.97,17.04-2.78,25.49-3.25,15.25-19.42,28-34.97,25.8-2.65-.37-5.34-.88-8.09-.65-5.44.46-7.93,4.71-5.72,9.67,1.92,4.3,5.05,6.22,9.72,5.57,1.91-.26,3.63-1.03,5.34-1.87,2.69-1.32,5.46-2.39,8.51-2.5,6.76-.25,11.15,3.41,14.44,8.83,4.34,11.29,4.68,22.91,2.68,34.66-.95,5.57-3.17,10.54-8.04,13.94-3.97,2.77-8.59,3.09-13.15,3.65-3.97.49-7.87,1.2-11.39,3.25-2.07,1.2-3.22,4.54-2.06,6.7,1.08,2.02,3.09,2.28,5.2,1.79,1.91-.45,3.82-.91,5.74-1.36,1.7-.26,3.4-.46,5.09-.8,11.44-2.27,21.83-.6,30.42,7.97.33.33.63.96,1.3.48,0,0-.02-.03-.02-.03-.58.78.12.88.58,1.11,0,0-.02-.03-.02-.03.01.19.02.38.03.57.24.42.65.51,1.09.53,0,0-.01,0-.01,0,.16.42.22.91.48,1.24,7.37,9.17,9.84,20.02,10.36,31.39.33,7.22.27,14.47-.98,21.67-2.19,12.52-8.64,22.5-18.05,30.71-5.93,5.17-13.3,7.67-20.5,10.36-15.52,5.8-31.62,7.9-48.14,7.14-.91-.04-1.87-1.01-2.79,0Z" style="fill: #e3dd1c;"/>
      <path d="M628.09,82.21c7.5,1.01,13.97,4.77,20.72,7.79.24.37.41.82.73,1.09,8.34,6.97,11.07,16.44,8.06,26.77-2.53,8.69-9.49,13.79-16.54,18.39-8.41,5.49-18.14,8.13-27.61,11.22-9.88,3.23-20.08,5.5-29.63,9.77-5.23,2.34-9.27,5.61-9.79,11.88-.36,4.39-.97,8.72-.59,13.18.39,4.69-.05,9.45.21,14.16.72,12.91,1.86,25.79,2.19,38.73.11,4.24.26,8.5.54,12.75.6,9.1,1.78,18.18,1.98,27.29.31,13.66.33,27.32-1.38,40.97-1.66,13.2-4.96,25.76-11.42,37.37-4.61,8.29-9.77,16.19-19.79,18.91-12.74.42-21.5-5.88-27.59-16.51-10-17.46-17.24-35.93-20.43-55.89-3.23-20.2-4.89-40.51-4.54-60.99.19-10.71.39-21.44-.31-32.14-.27-4.11.6-8.14.53-12.23-.12-6.5-2.6-8.79-9.11-9.2-3.38-.22-6.82.42-10.15-.57.22-.27.39-.71.67-.8,8.19-2.55,15.85-6.43,23.87-9.38,5.58-2.06,10.61-5.03,15.32-8.59,11.41-8.62,13.61-17.05,10.88-28.89-2.26-9.8-9.8-16.2-18.43-16.58-8.76-6.07-18.76-6.75-28.94-6.63-.9.01-1.8,0-2.7,0,.18-1.32,1.24-1.61,2.27-2.01,16.69-6.5,33.86-11.33,51.24-15.63,18.82-4.66,37.52-9.82,56.59-13.41,7.43-1.4,14.97-1.33,22.5-1.46,6.89-.12,13.77-.25,20.63.64Z" style="fill: #ea324a;"/>
      <path d="M191.31,408.15c-.22.7-.53,1.35-.36,2.1-5.36,12.25-11.81,23.91-20.1,34.39-16.74,21.16-39.01,33.5-64.83,40.32-13.4,3.54-26.87,3.98-40.43,2.53-8.26-.88-15.45-4.78-21.65-10.33-1.55-1.39-2.31-3.24-2.2-5.37,5.29,2.6,10.64,4.95,16.49,6.12,8.61,1.72,17.18,1.87,25.86.55,14.35-2.19,28.01-6.5,40.86-13.24,13.91-7.29,25.37-17.62,35.74-29.3,5.88-6.62,10.97-13.72,14.84-21.67,4.44-9.12,6.92-18.82,8.27-28.82,1.21-9.01,1.38-18.08.42-27.07-1.72-16.12-7.25-30.92-16.65-44.21-1.3-1.85-2.46-3.81-3.81-5.62-5.34-7.13-4.78-14.77-2.25-22.69,2.88-9.05,5.94-18.05,8.42-27.23,2.83-10.44,3.81-21.09,2.83-31.76-1.15-12.68-3.83-25.05-11.78-35.57-.4-.54-.81-1.06-1.22-1.58-.12-.15-.24-.3-.37-.45-.43-.53-.86-1.05-1.31-1.57-.17-.2-.34-.4-.52-.6-.4-.46-.81-.91-1.22-1.36-.04-.05-.09-.09-.14-.14-.17-.19-.35-.38-.53-.57-.38-.4-.76-.79-1.15-1.18-.07-.07-.15-.14-.22-.21-.03-.04-.07-.08-.11-.12-.46-.46-2.25-2.42-3.57-3.85.65.26,1.28.6,1.86,1,.33.22.62.48.96.68.35.2.69.41,1.03.62.67.42,1.33.86,1.98,1.31,1.28.9,2.52,1.86,3.71,2.88,1.19,1.01,2.33,2.07,3.43,3.17,1.11,1.1,2.17,2.25,3.2,3.41,1.04,1.18,2.04,2.38,3.03,3.6.98,1.22,1.94,2.46,2.89,3.7.43.57.86,1.15,1.29,1.72.56,2.86,1.71,5.5,2.94,8.13,4.3,9.23,5.72,19.09,5.61,29.14-.12,10.83-1.82,21.5-3.96,32.1-1.13,5.64-3.28,10.96-5.93,16.01-4.91,9.35-4.21,18.26,1.36,26.99,1.61,2.52,3.19,5.07,4.85,7.55,8.83,13.21,13.88,27.98,16.06,43.46,2.04,14.44.77,28.96-3.62,43.03Z" style="fill: #034e24;"/>
      <path d="M310.86,166.5c3.14,2.61,5.92,5.6,8,9.08,6.4,10.7,10.68,22.32,14.24,34.21.62,2.06,1.44,3.9,3.34,5.08,1.47,7.4,2.93,14.8,4.4,22.19,2.43,12.21,4.19,24.54,6.01,36.85,1.73,11.67,2.91,23.38,2.69,35.21-.36,19.23-3.79,37.99-8.46,56.57-3.3,13.1-7.32,25.95-13.37,38.07-8.6,17.22-21.37,30.55-38.15,39.91-11.49,6.41-24.04,7.59-36.87,5.98-14.1-1.77-27.33-6.3-39.4-13.83-6.77-4.22-12.4-9.73-16.41-16.74-.31-.54-.46-1.16-.69-1.75,2.78,2.16,4.92,4.97,7.58,7.28,10.89,9.48,23.31,15.24,37.66,17.33,11.15,1.63,22.04.89,32.69-2.29,8.17-2.44,15-7.37,21.32-13.15,7.87-7.19,15.06-14.86,20.63-24.02,7.2-11.82,11.86-24.61,14.86-38.02,2.38-10.65,4.25-21.39,5.03-32.33,1.15-16.03,1.35-32.08.85-48.1-.3-9.71-1.5-19.43-2.44-29.13-1.46-15.14-3.98-30.07-7.81-44.76-2.8-10.76-5.36-21.61-9.76-31.89-1.33-3.1-3.01-5.98-4.81-8.82-.56-.88-1.5-1.67-1.14-2.93Z" style="fill: #be4b03;"/>
      <path d="M506.5,120.71c8.64.39,16.18,6.78,18.43,16.58,2.73,11.84.53,20.28-10.88,28.89-4.72,3.56-9.74,6.53-15.32,8.59-8.02,2.96-15.69,6.83-23.87,9.38-.28.09-.45.52-.67.8-6.01,2.5-12.24,4.44-18.11,7.28-8.56,4.14-11.44,9.39-9.37,18.71,1.82,8.18,2.28,16.47,3.02,24.74,1.03,11.56,1.68,23.15,2.41,34.73.87,13.87.59,27.76.14,41.64-.33,10.15-.87,20.3-1.88,30.41-1.62,16.31-5.07,32.16-11.95,47.12-2.97,6.47-7.32,11.91-13.26,15.89-6.14,4.12-12.76,4.16-17.99.39,8.79-1,13.79-6.72,17.77-13.95,5.7-10.35,7.63-21.81,10.1-33.1,2.63-11.99,4.7-24.11,6.36-36.27,1.01-7.4,1.81-14.88.91-22.44-.59-4.93-.24-9.94-.55-14.93-.54-8.77-.33-17.58-.76-26.36-.57-11.82-1.46-23.61-3.48-35.31-1.34-7.74-2.44-15.59-.12-23.4,2.36-7.96,7.88-12.32,15.7-14.6,9.02-2.63,18.05-5.29,26.89-8.55,9.33-3.44,17.88-8.43,26-14.01,9.77-6.71,12.93-20.8,8.01-31.69-1.84-4.06-4.6-7.33-7.52-10.55Z" style="fill: #1a3e87;"/>
      <path d="M545.79,372.49c10.02-2.72,15.18-10.62,19.79-18.91,6.46-11.62,9.76-24.17,11.42-37.37,1.71-13.66,1.69-27.31,1.38-40.97-.2-9.11-1.38-18.19-1.98-27.29-.28-4.24-.43-8.5-.54-12.75-.34-12.94-1.47-25.82-2.19-38.73-.26-4.71.18-9.47-.21-14.16-.37-4.46.23-8.79.59-13.18.52-6.27,4.56-9.54,9.79-11.88,9.54-4.27,19.74-6.54,29.63-9.77,9.47-3.09,19.2-5.73,27.61-11.22,7.05-4.6,14.01-9.7,16.54-18.39,3.01-10.33.28-19.8-8.06-26.77-.32-.27-.49-.72-.73-1.09,5.77,1.35,9.93,4.84,12.3,10.14,1.68,3.76,1.64,7.96,1.51,12.01-.42,13.36-7.84,22.13-19,28.32-10.34,5.73-21.34,9.83-32.72,12.94-1.11.3-2.03.73-2.7,1.65-5.58,1.56-10.92,3.73-16.28,5.92-5.25,2.15-6.8,6.15-7.47,11.21-1.36,10.32.89,20.38,1.85,30.55.54,5.68.82,11.39,1.22,17.09,1.04,14.47,2.88,28.92,2.67,43.44-.26,17.68-1.45,35.32-3.34,52.91-1.38,12.82-3.54,25.44-7.82,37.63-1.96,5.58-4.41,10.92-8.2,15.52-1.15,1.39-2.42,2.72-3.81,3.87-6.53,5.38-11.45,5.65-18.55,1.13-.91-.58-1.79-1.23-2.68-1.85Z" style="fill: #b90a2d;"/>
      <path d="M914.19,343.19c8.42,1.38,15.78-.51,22.44-6.15,8.26-6.99,16.15-14.33,23.68-22.08,6.64-6.83,12.69-14.07,17.91-22.13,5.83-9.01,11.43-18.12,15.98-27.8,7.09-15.09,13.82-30.36,16.79-46.94,1.84-10.32,3.64-20.61,4.33-31.12,1.04-15.83-.69-31.25-5.04-46.43-1.79-6.25-4.62-12.01-8.66-17.12-1.35-1.71-2.97-3.15-5.02-4.1-1.08-.5-2.43-.89-2.69-2.39,7.45,2.35,14.24,5.66,19.16,12.1,6.69,8.73,9.86,18.83,11.91,29.41,2.61,13.47,2.4,26.96,1.2,40.58-1.71,19.54-5.54,38.57-13.3,56.55-11.18,25.91-26.12,49.53-45.85,69.86-10.67,10.99-23.36,19.18-37.41,25.28-2.35,1.02-4.88,1.48-7.4,1.6-4.92.25-8.1-3.45-8.04-9.11Z" style="fill: #cb054f;"/>
      <path d="M906.17,272.85c-1.02,6.25-.08,12.67-1.89,18.87-2.3,7.85-6.65,14.43-12.08,20.39-9.84,8.3-20.64,7-31.68,3.12-1.27-.45-2.45-1.15-3.46-2.09,1.19.3,1.49-.16,2.23,0,8.67,1.86,16.27-.14,22.26-6.76,4.17-4.61,8.55-9.16,10.57-15.32,1.98-6.05,3.04-12.28,3.64-18.58,1.83-19.29-2.78-37.74-7.53-56.16-3.57-13.84-8.55-27.15-15.52-39.66-2.82-5.06-5.79-10.06-8.91-14.94-2.68-4.19-3.21-8.18-.76-12.74,4.85-9.02,9.44-18.18,12.03-28.2,4.23-16.33,3.09-32.44-1.57-48.47-2.84-9.8-6.21-19.32-12.67-27.46-1.1-1.38-2.92-2.25-3.22-4.23,8.24,5.21,14.58,12.26,19.81,20.39.63.98,1.19,2.01,1.78,3.02.22,2.68,1.65,4.96,2.58,7.39,3.27,8.5,4.97,17.29,5.29,26.39.13,3.6.85,7.19.93,10.79.18,8.97-2.03,17.51-5.14,25.85-.22.59-.41,1.19-.61,1.79-3.2,7.25-7.43,14.02-10.12,21.52-1.96,5.45-.71,10.08,3.07,14.26,1.27,1.41,2.5,2.89,3.54,4.48,10.23,15.6,19.41,31.63,22.32,50.52,1.28,8.32,2.74,16.59,3.49,24.98.63,6.95.56,13.94,1.62,20.85Z" style="fill: #8c1ccd;"/>
      <path d="M658.04,343.75c.91-1.01,1.88-.04,2.79,0,16.52.75,32.62-1.34,48.14-7.14,7.2-2.69,14.57-5.18,20.5-10.36,9.41-8.22,15.86-18.19,18.05-30.71,1.26-7.2,1.31-14.44.98-21.67-.52-11.38-2.99-22.22-10.36-31.39-.26-.33-.33-.82-.48-1.24,9.61,2.9,15.05,10.2,17.75,19.05,3.57,11.71,5.01,23.88,3.62,36.21-.19,1.71-.2,3.44-.3,5.16-1.71,8.57-4.29,16.78-9.91,23.73-1.61,1.99-3.41,3.78-5.42,5.33-14.86,11.46-31.22,18.78-50.39,19.1-9.46.16-18.79,0-27.9-2.84-2.49-.78-4.93-1.67-7.06-3.23Z" style="fill: #ecb803;"/>
      <path d="M691.94,164.35c-4.68.64-7.81-1.27-9.72-5.57-2.21-4.96.28-9.21,5.72-9.67,2.75-.23,5.45.27,8.09.65,15.55,2.19,31.72-10.56,34.97-25.8,1.8-8.45,3.47-16.87,2.78-25.49-.84-10.31-2.41-20.51-9.22-28.98-2.11-2.62-4.64-4.81-7.04-7.14,7.65-.19,13.09,3.48,17.11,9.72,1.27,1.97,2.7,3.85,4.06,5.76,3.23,6.28,5.52,12.85,6.33,19.91.55,4.79.4,9.6.2,14.37-.26,6.3-1.04,12.59-2.96,18.64-2.36,7.46-6.47,13.86-12.19,19.22-6.84,5.06-14.56,7.14-22.99,6.76-3.44-.15-6.88-.49-10.32-.47-3.42.02-4.87,1.68-4.91,5.1-.01,1,.06,1.99.09,2.99Z" style="fill: #ecb803;"/>
      <path d="M963.98,99.53c-4.5-1.86-8.48-4.5-11.64-8.21-2.02-2.38-1.84-4.41.23-6.82,1.32-1.54,3.03-2.58,4.81-3.5,5.65-2.91,11.58-5.19,17.41-7.69,11.8-5.04,20.61-13.09,23.57-25.91,2.44-10.57-.33-20.24-7.45-28.55-.57-.67-1.49-1.13-1.37-2.22,10.52,6.93,17.78,16.2,19.98,28.8.78,4.44.55,9-.59,13.48-1.88,7.43-7.04,11.83-13.53,15.01-5.95,2.92-12.42,4.4-18.66,6.54-3.77,1.3-7.55,2.59-10.71,5.14-3.71,2.99-6.32,6.01-2.8,11.92.36.6.5,1.33.74,2Z" style="fill: #cb054f;"/>
      <path d="M253.62,300.71c-2.05,1.86-5.67,1.15-7.59-1.56-1.93-2.72-2.89-5.87-3.26-9.1-.89-7.61-1.6-15.24-2.28-22.88-1.39-15.53-1.9-31.16-5.96-46.35-1.69-6.32-4.03-12.37-7.43-18-.86-1.43-2.02-2.84-1.84-4.72,6.92,7.46,11.96,16.07,15.8,25.44,3.79,9.26,5.83,18.92,7.11,28.82,1.28,9.94,2.05,19.91,2.73,29.91.42,6.2,1.38,12.35,2.73,18.43Z" style="fill: #be4b03;"/>
      <path d="M778.32,314.3c12.53-.51,19.69-7.96,24.21-18.77,3.93-9.39,5.9-19.41,9.28-28.99.76-2.15,1.69-4.21,2.76-6.21.51-.96,1.36-1.6,2-.36,2.28,4.4,4.49,8.43,6.73,12.77-2.9,7.97-6.23,16.68-9.23,24.62-2.37,6.29-6.09,11.64-11.38,15.92-4.52,3.65-9.69,5.18-15.33,5.29-3.64.07-6.59-1.64-9.04-4.28Z" style="fill: #8c1ccd;"/>
      <path d="M989.57,16.67c-.58,0-.99-.25-1.14-.84.38.28.76.56,1.14.84Z" style="fill: #cb054f;"/>
      <path d="M225.27,198.18c-.2-.27-.39-.53-.59-.8.2.27.39.53.59.8Z" style="fill: #be4b03;"/>
      <path d="M85.06,273.35c-5.56-.08-9.23-3.25-11.42-7.87-2.4-5.06-1.57-10.19,2.08-14.48,4.72-5.56,10.4-6.48,16.8-3.09,1.02.54,2.77,2.31,3.57,4.48-6.65,5.42-10.98,12.06-11.04,20.96Z" style="fill: #034e24;"/>
      <path d="M92.17,385.15c-8.57-1.41-11.87-5.11-10.54-13.93.5-3.29,1.52-6.36,3.39-9.07,4-5.79,10.69-5.21,16.34-2.3,1.93,1,3.67,2.37,4.43,4.59-6.24,2.19-10.95,5.88-12.32,12.75-.52,2.64-.88,5.3-1.31,7.96Z" style="fill: #034e24;"/>
      <path d="M699.2,231.44c-1.91.45-3.82.92-5.74,1.36-2.11.49-4.12.24-5.2-1.79-1.16-2.16,0-5.5,2.06-6.7,3.52-2.05,7.42-2.76,11.39-3.25,4.56-.56,9.18-.88,13.15-3.65,4.87-3.4,7.09-8.37,8.04-13.94,2.01-11.75,1.66-23.37-2.68-34.66,3.68-.03,6.53,1.87,9.29,3.97,4.9,6.09,6.84,13.21,7.05,20.85.16,6.04.27,12.09-2.13,17.87-.58,1.39-1.75,2.55-1.76,4.18-3.21,4.69-6.75,8.96-12.58,10.55-4.44,1.21-8.83,2.55-13.43,3.13-2.56.33-5.25.45-7.47,2.09Z" style="fill: #ecb803;"/>
      <path d="M798.43,137.62c-5.87.27-8.6-3.72-10.59-8.25-1.84-4.19.1-7.94,2.82-10.97,5.75-6.39,16.41-4.75,20.02,2.87-8.06-.55-17.29,8.01-12.26,16.34Z" style="fill: #8c1ccd;"/>
      <path d="M737.66,241.25c-.44-.02-.84-.11-1.09-.53.18,0,.36-.03.53-.07.18.2.37.4.55.6Z" style="fill: #ecb803;"/>
      <path d="M310.29,165.96c.2.19.4.38.59.58-.2-.19-.4-.38-.59-.58Z" style="fill: #be4b03;"/>
      <path d="M309.74,165.39c.2.2.39.41.59.61-.2-.2-.39-.41-.59-.61Z" style="fill: #be4b03;"/>
    </g>
  </g>
</svg>