<?xml version="1.0" encoding="UTF-8"?>
<svg id="uuid-ed3f069e-7466-4255-a446-b90a94a8262b" data-name="Capa_2" xmlns="http://www.w3.org/2000/svg" viewBox="0 0 273.79 433.33">
  <g id="uuid-0be96227-3356-412a-888c-484dded34b80" data-name="Capa_2">
    <g>
      <polygon points="47.13 386.76 48.37 425.9 239.6 428.38 239.6 379.83 47.13 386.76" style="fill: #135433;"/>
      <path d="M138.53,424.17s-21.3-6.94-54.25-5.7c-32.95,1.24-57.1,9.29-56.23,11.52.87,2.23,31.09-.5,43.72-.87,12.63-.37,31.75.25,47.27.58,15.52.33,26.59.5,34.85.5s49.87,1.98,71.18,2.15c21.3.17,33.03,2.15,33.03,0s-17.5-10.07-54-10.9c-36.5-.83-56.81,1.16-65.56,2.72Z" style="fill: #1e1621;"/>
      <path d="M47.13,386.76l.14,4.49c2.92.62,50.46,10.6,91.26,9.88,42.11-.74,101.07-14.72,101.07-14.72v-6.58l-192.47,6.94Z" style="fill: #033219;"/>
      <path d="M47.21,269.09s-34.04,46.82-40.62,94.05c24.44,20.48,32.7,24.44,32.7,24.44,0,0,34.27,9.58,99.87,9.91,58.66.33,100.94-13.54,100.94-13.54l26.43-32.37s-2.64-43.28-36.33-85.72c-63.08,25.61-133.43,37.32-182.98,3.22Z" style="fill: #3ec69f;"/>
      <path d="M140.35,305.68s-1.49,24.44-1.82,39.14c-.33,14.7-1.16,33.77-1.07,39.55.08,5.78.49,12.05,1.44,12.05s1.04-12.22,1.45-19.4c.41-7.18,2.45-33.36,2.71-45.33.26-11.97.92-26.01.92-26.01h-3.63Z"/>
      <path d="M230.56,351.59s.12-5.95-1.86-14.12c-1.98-8.17-4.3-17.09-5.09-16.84-.79.25,1.44,7.45,2.06,11.06.62,3.61,3.47,20.64,3.47,20.64l1.43-.74Z"/>
      <path d="M43.16,356.54s1.49-7,2.23-11.95c.74-4.96,2.85-12.99,3.53-12.9.68.08-.31,4.98-.99,7.89-.68,2.91-2.85,17.71-2.85,17.71l-1.92-.74Z"/>
      <path d="M47.04,371.4c0,11.99-9.72,21.71-21.71,21.71s-21.71-9.72-21.71-21.71,9.72-21.71,21.71-21.71,21.71,9.72,21.71,21.71Z" style="fill: #f4cfa7;"/>
      <path d="M271.16,364.7c0,11.99-9.72,21.71-21.71,21.71s-21.71-9.72-21.71-21.71,9.72-21.71,21.71-21.71,21.71,9.72,21.71,21.71Z" style="fill: #f4cfa7;"/>
      <g>
        <circle cx="41.18" cy="364.7" r="9.41" style="fill: #f4cfa7;"/>
        <path d="M41.18,374.51c-5.41,0-9.81-4.4-9.81-9.81s4.4-9.81,9.81-9.81,9.81,4.4,9.81,9.81-4.4,9.81-9.81,9.81ZM41.18,355.68c-4.97,0-9.02,4.04-9.02,9.02s4.04,9.02,9.02,9.02,9.02-4.04,9.02-9.02-4.04-9.02-9.02-9.02Z"/>
      </g>
      <g>
        <path d="M242.43,359.11c0,5.2-4.21,9.41-9.41,9.41s-9.41-4.22-9.41-9.41,4.21-9.41,9.41-9.41,9.41,4.22,9.41,9.41Z" style="fill: #f4cfa7;"/>
        <path d="M233.02,368.92c-5.41,0-9.81-4.4-9.81-9.81s4.4-9.81,9.81-9.81,9.81,4.4,9.81,9.81-4.4,9.81-9.81,9.81ZM233.02,350.09c-4.97,0-9.02,4.04-9.02,9.02s4.05,9.02,9.02,9.02,9.02-4.05,9.02-9.02-4.04-9.02-9.02-9.02Z"/>
      </g>
      <ellipse cx="136.89" cy="170.75" rx="136.89" ry="136.74" style="fill: #f4cfa7;"/>
      <path d="M155.3,259.21c.03.43-.48,1.29-.84,1.43-1.57.58-3.18,1.02-4.88.97-.96-.04-1.75.5-2.64.68-.51.1-1.01.22-1.53.18-2.41-.18-4.81-.24-7.22-.25-.44,0-.87-.07-1.29-.24-.35-.13-.73-.24-1.11-.21-1.46.08-2.86-.24-4.22-.71-.79-.27-1.58-.4-2.29-.34-.59-.03-1.07-.05-1.55.05-.25.06-.53.05-.76-.08-1.28-.75-2.81-.76-4.11-1.37-1.5-.71-3.11-1.08-4.62-1.73-1.34-.59-2.53-1.41-3.88-1.96-.4-.16-.87-.41-.64-1.02.15-.42.8-.65,1.29-.34.91.55,1.92.86,2.85,1.37.89.49,1.92.66,2.88,1.01,1.34.49,2.65,1.04,3.99,1.52,1.38.48,2.8.96,4.31.92,1.41-.04,2.77.26,4.13.56,1.84.41,3.7.9,5.58.9s3.83.31,5.73-.1c.54-.12,1.11-.11,1.67-.16,1.49-.13,2.93-.47,4.34-1.03.75-.3,1.53-.51,2.26-.91.55-.3,1.3-.22,1.93-.03.38.12.59.48.62.89Z" style="fill: #0d0b0a;"/>
      <path d="M139.28,64.48s-25.02,15.85-40.38,24.77c-15.36,8.92-42.36,30.96-42.36,30.96,0,0,.58-9.41,7.18-20.97,6.61-11.56,13.54-20.97,15.03-34.76-14.2,4.71-53.51,14.62-72.17,14.12,14.04-7.27,25.92-17.01,33.03-23.62,7.1-6.6,18.33-19.48,44.26-23.78-6.6-11.07-12.05-17.51-17.34-20.97-5.29-3.47-11.89-7.26-11.73-10.24,6.94,3.63,20.97,7.1,34.02,10.4,13.05,3.3,31.87,8.42,38.64,18.83,12.22-3.14,23.62-6.6,40.63-13.54,17.01-6.94,32.04-12.88,32.04-12.88,0,0-10.73,10.73-15.36,14.2-4.62,3.47-9.58,8.75-10.24,10.73,6.61.33,19.16,4.29,32.37,12.55,13.21,8.26,33.53,23.12,39.63,26.09-8.42-.83-23.12-5.7-29.23-8.09-6.11-2.39-15.19-6.11-22.46-5.28,2.15,7.1,11.07,23.95,19.65,35.84,8.59,11.89,18,24.94,20.81,31.38-8.59-6.77-27.08-19.98-43.76-28.73-16.68-8.75-52.27-27-52.27-27Z" style="fill: #f1f521;"/>
      <path d="M120.27,141.69c18.01,9.43,23.54,34.38,12.37,55.73-11.18,21.35-34.83,31.01-52.84,21.59-18.01-9.43-23.54-34.38-12.37-55.73,11.18-21.35,34.83-31.01,52.84-21.59Z" style="fill: #f4f5f3;"/>
      <path d="M156.55,143.47c-18.01,9.43-23.54,34.38-12.37,55.73,11.18,21.35,34.83,31.01,52.84,21.59,18.01-9.43,23.54-34.38,12.37-55.73-11.18-21.35-34.83-31.01-52.84-21.59Z" style="fill: #f4f5f3;"/>
      <path d="M139.02,184.48c-.33,0-.62-.24-.67-.57-1.06-6.54-.75-13.18.91-19.19.1-.36.47-.58.84-.48.36.1.58.47.48.84-1.6,5.83-1.9,12.26-.88,18.61.06.37-.19.72-.56.78-.04,0-.07,0-.11,0Z"/>
      <path d="M122.85,182.12c0,2.55-2.07,4.63-4.63,4.63s-4.63-2.07-4.63-4.63,2.07-4.62,4.63-4.62,4.63,2.07,4.63,4.62Z"/>
      <path d="M165.43,182.12c0,2.55-2.07,4.63-4.62,4.63s-4.62-2.07-4.62-4.63,2.07-4.62,4.62-4.62,4.62,2.07,4.62,4.62Z"/>
    </g>
  </g>
</svg>